<?xml version="1.0" encoding="UTF-8" standalone="no"?>
<!-- Created with Inkscape (http://www.inkscape.org/) -->

<svg
   width="512"
   height="512"
   viewBox="0 0 512 512"
   version="1.1"
   id="svg1"
   inkscape:version="1.3.2 (091e20ef0f, 2023-11-25, custom)"
   sodipodi:docname="icons.svg"
   inkscape:export-filename="icons.png"
   inkscape:export-xdpi="8"
   inkscape:export-ydpi="8"
   xmlns:inkscape="http://www.inkscape.org/namespaces/inkscape"
   xmlns:sodipodi="http://sodipodi.sourceforge.net/DTD/sodipodi-0.dtd"
   xmlns:xlink="http://www.w3.org/1999/xlink"
   xmlns="http://www.w3.org/2000/svg"
   xmlns:svg="http://www.w3.org/2000/svg">
  <sodipodi:namedview
     id="namedview1"
     pagecolor="#ffffff"
     bordercolor="#111111"
     borderopacity="1"
     inkscape:showpageshadow="0"
     inkscape:pageopacity="0"
     inkscape:pagecheckerboard="1"
     inkscape:deskcolor="#d1d1d1"
     inkscape:document-units="px"
     inkscape:zoom="0.10327149"
     inkscape:cx="6720.1512"
     inkscape:cy="-784.34042"
     inkscape:window-width="1920"
     inkscape:window-height="1024"
     inkscape:window-x="0"
     inkscape:window-y="0"
     inkscape:window-maximized="0"
     inkscape:current-layer="layer1">
    <inkscape:page
       x="0"
       y="0"
       width="512"
       height="512"
       id="page9"
       margin="0"
       bleed="0"
       inkscape:export-filename="./Page 11.png"
       inkscape:export-xdpi="3.7500005"
       inkscape:export-ydpi="3.7500005" />
    <inkscape:page
       x="520.47284"
       y="0"
       width="512"
       height="512"
       id="page10"
       margin="0"
       bleed="0" />
    <inkscape:page
       x="1042.4729"
       y="0"
       width="512"
       height="512"
       id="page11"
       margin="0"
       bleed="0" />
    <inkscape:page
       x="1564.4729"
       y="0"
       width="512"
       height="512"
       id="page12"
       margin="0"
       bleed="0" />
    <inkscape:page
       x="2086.4729"
       y="0"
       width="512"
       height="512"
       id="page13"
       margin="0"
       bleed="0" />
    <inkscape:page
       x="2608.4729"
       y="0"
       width="512"
       height="512"
       id="page14"
       margin="0"
       bleed="0" />
    <inkscape:page
       x="3130.4729"
       y="0"
       width="512"
       height="512"
       id="page22"
       margin="0"
       bleed="0" />
    <inkscape:page
       x="3652.4729"
       y="0"
       width="512"
       height="512"
       id="page23"
       margin="0"
       bleed="0" />
    <inkscape:page
       x="4174.4722"
       y="0"
       width="512"
       height="512"
       id="page24"
       margin="0"
       bleed="0" />
    <inkscape:page
       x="4696.4722"
       y="0"
       width="512"
       height="512"
       id="page2"
       margin="0"
       bleed="0"
       inkscape:export-filename="./Page 1.png"
       inkscape:export-xdpi="3.3750005"
       inkscape:export-ydpi="3.3750005" />
    <inkscape:page
       x="5218.4722"
       y="0"
       width="512"
       height="512"
       id="page1"
       margin="0"
       bleed="0"
       inkscape:export-filename="./Page 2.png"
       inkscape:export-xdpi="3.7500005"
       inkscape:export-ydpi="3.7500005" />
    <inkscape:page
       x="5740.4722"
       y="0"
       width="512"
       height="512"
       id="page18"
       margin="0"
       bleed="0" />
    <inkscape:page
       x="6262.4722"
       y="0"
       width="512"
       height="512"
       id="page25"
       margin="0"
       bleed="0"
       inkscape:export-filename="./Page 13.png"
       inkscape:export-xdpi="8"
       inkscape:export-ydpi="8" />
    <inkscape:page
       x="6784.4722"
       y="0"
       width="512"
       height="512"
       id="page26"
       margin="0"
       bleed="0" />
    <inkscape:page
       x="7306.4722"
       y="0"
       width="512"
       height="512"
       id="page3"
       margin="0"
       bleed="0" />
    <inkscape:page
       x="7828.4722"
       y="0"
       width="512"
       height="512"
       id="page4"
       margin="0"
       bleed="0" />
    <inkscape:page
       x="8350.4727"
       y="0"
       width="512"
       height="512"
       id="page5"
       margin="0"
       bleed="0" />
    <inkscape:page
       x="8872.4727"
       y="0"
       width="512"
       height="512"
       id="page6"
       margin="0"
       bleed="0" />
    <inkscape:page
       x="9394.4727"
       y="0"
       width="512"
       height="512"
       id="page7"
       margin="0"
       bleed="0" />
    <inkscape:page
       x="9916.4727"
       y="0"
       width="512"
       height="512"
       id="page8"
       margin="0"
       bleed="0" />
    <inkscape:page
       x="10438.473"
       y="0"
       width="512"
       height="512"
       id="page15"
       margin="0"
       bleed="0" />
    <inkscape:page
       x="10960.473"
       y="0"
       width="512"
       height="512"
       id="page16"
       margin="0"
       bleed="0" />
    <inkscape:page
       x="11482.473"
       y="0"
       width="512"
       height="512"
       id="page17"
       margin="0"
       bleed="0" />
    <inkscape:page
       x="12004.473"
       y="0"
       width="512"
       height="512"
       id="page19"
       margin="0"
       bleed="0" />
  </sodipodi:namedview>
  <defs
     id="defs1" />
  <g
     inkscape:label="Layer 1"
     inkscape:groupmode="layer"
     id="layer1"
     transform="translate(-33.891253)">
    <use
       x="0"
       y="0"
       xlink:href="#rect29"
       id="use18"
       transform="translate(520.47284)" />
    <use
       x="0"
       y="0"
       xlink:href="#rect29"
       id="use51"
       transform="translate(4696.4722)" />
    <use
       x="0"
       y="0"
       xlink:href="#rect31"
       id="use52"
       transform="translate(-522.00098)" />
    <g
       id="g39">
      <rect
         style="fill:#a0a0a0;fill-opacity:1;stroke:none;stroke-width:22.5257;stroke-opacity:1"
         id="rect2"
         width="347.69601"
         height="38.468281"
         x="5313.2617"
         y="446.72205" />
      <path
         style="fill:none;fill-rule:evenodd;stroke:#a0a0a0;stroke-width:26.0649;stroke-linecap:butt;stroke-linejoin:miter;stroke-dasharray:none;stroke-opacity:1"
         d="M 5408.5892,465.9562 V 46.0438"
         id="path4"
         inkscape:connector-type="polyline"
         inkscape:connector-curvature="0" />
      <path
         style="fill:#e60e0e;fill-opacity:1;stroke:#ffffff;stroke-width:40.5368;stroke-dasharray:none;stroke-opacity:1"
         d="M 5414.188,40.888174 5642.2161,156.97513 5414.188,250.25931 Z"
         id="path3"
         sodipodi:nodetypes="cccc" />
    </g>
    <g
       id="g38">
      <path
         style="fill:#db4419;fill-opacity:1;stroke:none;stroke-width:25.2636;stroke-linejoin:round;stroke-dasharray:none;stroke-opacity:1"
         d="m 4972.886,86.482295 c 0.2882,0.408744 0.4559,1.514419 0.8646,1.226233 0.4087,-0.288186 -1.1847,-0.842027 -0.8646,-1.226233 0.9689,-1.162585 2.6315,-1.504713 3.8678,-2.377549 2.5222,-1.780772 7.6261,-7.130223 9.61,-9.610087 1.3456,-1.681898 2.2252,-3.751373 3.6038,-5.405674 2.0854,-2.50243 4.5201,-4.703381 6.607,-7.207565 0.4621,-0.554554 0.6908,-1.291452 1.2012,-1.801891 1.78,-1.780014 4.1032,-3.173783 6.0063,-4.805042 4.1984,-3.598596 8.4041,-7.203494 12.6133,-10.811348 2.2396,-1.919677 4.9176,-3.087586 7.2075,-4.805042 0.9061,-0.679536 1.5502,-1.656727 2.4025,-2.402522 3.0941,-2.707299 6.698,-5.0999 10.2108,-7.207566 2.9932,-1.795919 5.9145,-3.257599 9.0094,-4.805042 2.0884,-1.044169 3.8808,-2.637623 6.0063,-3.603783 2.6206,-1.191171 4.1362,-1.029887 6.607,-2.402521 0.875,-0.486153 1.5274,-1.315738 2.4025,-1.801891 3.4106,-1.894781 7.2478,-2.267456 10.8113,-3.603782 3.1144,-1.167897 6.2292,-2.580538 9.6101,-3.003153 3.3325,-0.416563 6.9303,-0.131988 10.2107,-0.60063 4.8443,-0.6920435 10.2859,-1.1824665 15.0158,0 1.2719,0.317981 2.3319,1.48391 3.6038,1.801892 2.5214,0.630354 5.6124,1.811755 7.2075,4.204411 0.7995,1.199124 0.972,2.358845 1.8019,3.603784 0.6185,0.927724 1.327,1.452596 1.8019,2.40252 0.662,1.323977 1.1579,9.13948 0.6007,10.811348 -0.09,0.268609 -0.4005,0.400419 -0.6007,0.600631 -0.2002,0.400419 -0.459,0.776549 -0.6006,1.20126 -1.2864,3.859203 -5.9507,5.743805 -9.6101,7.207564 -2.2475,0.898998 -0.1828,0.391743 -3.0032,1.801891 -4.5567,2.278396 -15.3725,5.164817 -20.4214,6.006304 -1.249,0.20817 -2.3548,0.993093 -3.6038,1.201262 -2.7829,0.46382 -5.6157,0.251499 -8.4088,0.600629 -1.5276,-0.100535 -2.7615,0.995132 -4.2044,1.201262 -0.7928,0.113251 -1.6079,-0.09933 -2.4025,0 -3.0312,0.378899 -6.0508,1.66286 -9.0095,2.402522 -6.6437,1.660938 -13.3386,3.244955 -19.8208,5.405673 -9.862,3.287342 2.9668,-0.737154 -5.4056,2.402522 -1.5459,0.579696 -3.2876,0.550909 -4.8051,1.20126 -0.6635,0.284358 -1.1384,0.916903 -1.8019,1.201261 -3.8211,1.637613 -8.2636,2.329927 -12.0126,4.204413 -5.3493,2.674648 -9.7421,6.705965 -14.4151,10.210717 -1.0497,0.787222 -1.7919,0.595599 -3.0032,1.20126 -0.6456,0.322829 -1.1562,0.878432 -1.8019,1.201262 -2.9444,1.472204 -6.5404,1.379315 -9.6101,2.40252 -0.8494,0.28314 -1.5531,0.918121 -2.4025,1.201262 -0.9685,0.322829 -2.0253,0.307284 -3.0031,0.600631 -4.7064,1.411894 -9.1043,4.639032 -13.2139,7.207564 -2.1306,1.331627 -5.4156,2.412481 -7.2076,4.204413 -0.3803,0.380346 0,1.075782 0,1.613673"
         id="path8" />
      <ellipse
         style="fill:#4c4c4c;fill-opacity:1;stroke:#404040;stroke-width:14.678;stroke-opacity:1"
         id="circle7"
         cx="4986.3638"
         cy="144.13786"
         rx="108.58324"
         ry="69.643204" />
      <circle
         style="fill:#4c4c4c;fill-opacity:1;stroke:#404040;stroke-width:32.584;stroke-opacity:1"
         id="path6"
         cx="4986.3638"
         cy="296.22653"
         r="193.04523" />
    </g>
    <text
       xml:space="preserve"
       style="font-size:489px;font-family:sans-serif;-inkscape-font-specification:'sans-serif, Normal';fill:#ffffff;fill-opacity:1;stroke:none;stroke-width:117.884;stroke-linejoin:round;stroke-dasharray:none;stroke-opacity:1"
       x="701.80609"
       y="430.573"
       id="text14"><tspan
         sodipodi:role="line"
         id="tspan14"
         x="701.80609"
         y="430.573"
         style="stroke-width:117.884">1</tspan></text>
    <use
       x="0"
       y="0"
       xlink:href="#rect29"
       id="use19"
       transform="translate(1042.4728)" />
    <text
       xml:space="preserve"
       style="font-style:normal;font-variant:normal;font-weight:normal;font-stretch:normal;font-size:489px;font-family:sans-serif;-inkscape-font-specification:'sans-serif, Normal';font-variant-ligatures:normal;font-variant-caps:normal;font-variant-numeric:normal;font-variant-east-asian:normal;fill:#ffffff;fill-opacity:1;stroke:none;stroke-width:117.884;stroke-linejoin:round;stroke-dasharray:none;stroke-opacity:1"
       x="1223.806"
       y="430.573"
       id="text15"><tspan
         sodipodi:role="line"
         id="tspan15"
         x="1223.806"
         y="430.573">2</tspan></text>
    <use
       x="0"
       y="0"
       xlink:href="#use19"
       id="use20"
       transform="translate(522)" />
    <text
       xml:space="preserve"
       style="font-style:normal;font-variant:normal;font-weight:normal;font-stretch:normal;font-size:489px;font-family:sans-serif;-inkscape-font-specification:'sans-serif, Normal';font-variant-ligatures:normal;font-variant-caps:normal;font-variant-numeric:normal;font-variant-east-asian:normal;fill:#ffffff;fill-opacity:1;stroke:none;stroke-width:117.884;stroke-linejoin:round;stroke-dasharray:none;stroke-opacity:1"
       x="1715.4882"
       y="433.01801"
       id="text16"><tspan
         sodipodi:role="line"
         id="tspan20"
         x="1715.4882"
         y="433.01801">3</tspan></text>
    <use
       x="0"
       y="0"
       xlink:href="#use21"
       id="use22"
       transform="translate(1.9558802)" />
    <use
       x="0"
       y="0"
       xlink:href="#use20"
       id="use21"
       transform="translate(522.00005,1.4670054)" />
    <text
       xml:space="preserve"
       style="font-style:normal;font-variant:normal;font-weight:normal;font-stretch:normal;font-size:489px;font-family:sans-serif;-inkscape-font-specification:'sans-serif, Normal';font-variant-ligatures:normal;font-variant-caps:normal;font-variant-numeric:normal;font-variant-east-asian:normal;fill:#ffffff;fill-opacity:1;stroke:none;stroke-width:117.884;stroke-linejoin:round;stroke-dasharray:none;stroke-opacity:1"
       x="2237.488"
       y="433.01801"
       id="text17"><tspan
         sodipodi:role="line"
         id="tspan21"
         x="2237.488"
         y="433.01801">4</tspan></text>
    <use
       x="0"
       y="0"
       xlink:href="#rect29"
       id="use24"
       transform="translate(3130.4728)" />
    <text
       xml:space="preserve"
       style="font-style:normal;font-variant:normal;font-weight:normal;font-stretch:normal;font-size:489px;font-family:sans-serif;-inkscape-font-specification:'sans-serif, Normal';font-variant-ligatures:normal;font-variant-caps:normal;font-variant-numeric:normal;font-variant-east-asian:normal;fill:#ffffff;fill-opacity:1;stroke:none;stroke-width:117.884;stroke-linejoin:round;stroke-dasharray:none;stroke-opacity:1"
       x="3281.488"
       y="433.01801"
       id="text18"><tspan
         sodipodi:role="line"
         id="tspan27"
         x="3281.488"
         y="433.01801">6</tspan></text>
    <use
       x="0"
       y="0"
       xlink:href="#rect29"
       id="use25"
       transform="translate(3652.4728)" />
    <text
       xml:space="preserve"
       style="font-style:normal;font-variant:normal;font-weight:normal;font-stretch:normal;font-size:489px;font-family:sans-serif;-inkscape-font-specification:'sans-serif, Normal';font-variant-ligatures:normal;font-variant-caps:normal;font-variant-numeric:normal;font-variant-east-asian:normal;fill:#ffffff;fill-opacity:1;stroke:none;stroke-width:117.884;stroke-linejoin:round;stroke-dasharray:none;stroke-opacity:1"
       x="3783.4636"
       y="428.12799"
       id="text19"><tspan
         sodipodi:role="line"
         id="tspan28"
         x="3783.4636"
         y="428.12799">7</tspan></text>
    <use
       x="0"
       y="0"
       xlink:href="#rect29"
       id="use23"
       transform="translate(2608.4728)" />
    <text
       xml:space="preserve"
       style="font-style:normal;font-variant:normal;font-weight:normal;font-stretch:normal;font-size:489px;font-family:sans-serif;-inkscape-font-specification:'sans-serif, Normal';font-variant-ligatures:normal;font-variant-caps:normal;font-variant-numeric:normal;font-variant-east-asian:normal;fill:#ffffff;fill-opacity:1;stroke:none;stroke-width:117.884;stroke-linejoin:round;stroke-dasharray:none;stroke-opacity:1"
       x="2757.043"
       y="428.12799"
       id="text26"><tspan
         sodipodi:role="line"
         id="tspan26"
         x="2757.043"
         y="428.12799">5</tspan></text>
    <use
       x="0"
       y="0"
       xlink:href="#rect29"
       id="use26"
       transform="translate(4172.5165)" />
    <text
       xml:space="preserve"
       style="font-style:normal;font-variant:normal;font-weight:normal;font-stretch:normal;font-size:489px;font-family:sans-serif;-inkscape-font-specification:'sans-serif, Normal';font-variant-ligatures:normal;font-variant-caps:normal;font-variant-numeric:normal;font-variant-east-asian:normal;fill:#ffffff;fill-opacity:1;stroke:none;stroke-width:117.884;stroke-linejoin:round;stroke-dasharray:none;stroke-opacity:1"
       x="4325.7324"
       y="430.573"
       id="text29"><tspan
         sodipodi:role="line"
         id="tspan29"
         x="4325.7324"
         y="430.573">8</tspan></text>
    <rect
       style="fill:#84a6ed;fill-opacity:1;stroke:none;stroke-width:18;stroke-linejoin:round;stroke-dasharray:none;stroke-opacity:1"
       id="rect29"
       width="512"
       height="512"
       x="33.891254"
       y="0"
       rx="81.426994"
       ry="81.426994" />
    <rect
       style="fill:#91d8ee;fill-opacity:1;stroke:none;stroke-width:18;stroke-linejoin:round;stroke-dasharray:none;stroke-opacity:1"
       id="rect30"
       width="511.99973"
       height="512"
       x="6296.3647"
       y="0"
       rx="81.426994"
       ry="81.426994" />
    <use
       x="0"
       y="0"
       xlink:href="#rect30"
       id="use41"
       transform="translate(522.0005)" />
    <use
       x="0"
       y="0"
       xlink:href="#use41"
       id="use42"
       transform="translate(521.9982)" />
    <use
       x="0"
       y="0"
       xlink:href="#use42"
       id="use43"
       transform="translate(522.0003)" />
    <use
       x="0"
       y="0"
       xlink:href="#use43"
       id="use44"
       transform="translate(522.0002)" />
    <use
       x="0"
       y="0"
       xlink:href="#use44"
       id="use45"
       transform="translate(522.00031)" />
    <use
       x="0"
       y="0"
       xlink:href="#use45"
       id="use46"
       transform="translate(522)" />
    <use
       x="0"
       y="0"
       xlink:href="#use46"
       id="use47"
       transform="translate(522)" />
    <use
       x="0"
       y="0"
       xlink:href="#use47"
       id="use48"
       transform="translate(522)" />
    <use
       x="0"
       y="0"
       xlink:href="#use48"
       id="use49"
       transform="translate(522)" />
    <use
       x="0"
       y="0"
       xlink:href="#text14"
       id="use31"
       transform="translate(6263.9999)" />
    <use
       x="0"
       y="0"
       xlink:href="#text15"
       id="use32"
       transform="translate(6233.6823,2.445002)" />
    <use
       x="0"
       y="0"
       xlink:href="#text16"
       id="use33"
       transform="translate(6265.9553,-2.4450054)" />
    <use
       x="0"
       y="0"
       xlink:href="#text17"
       id="use34"
       transform="translate(6262.7778,-1.4670054)" />
    <use
       x="0"
       y="0"
       xlink:href="#text26"
       id="use35"
       transform="translate(6263.9997)" />
    <use
       x="0"
       y="0"
       xlink:href="#text18"
       id="use36"
       transform="translate(6261.066,-2.4450054)" />
    <use
       x="0"
       y="0"
       xlink:href="#text19"
       id="use37"
       transform="translate(6284.2689,2.4450093)" />
    <use
       x="0"
       y="0"
       xlink:href="#text29"
       id="use38"
       transform="translate(6263.7556)" />
    <use
       x="0"
       y="0"
       xlink:href="#g38"
       id="use39"
       transform="translate(6285.2479,-1.5381893)" />
    <use
       x="0"
       y="0"
       xlink:href="#rect32"
       id="use53"
       transform="translate(-522)" />
    <use
       x="0"
       y="0"
       xlink:href="#g39"
       id="use40"
       transform="translate(6270.3147,9.4918539)" />
    <rect
       style="fill:#4275e5;fill-opacity:1;stroke:none;stroke-width:18;stroke-linejoin:round;stroke-dasharray:none;stroke-opacity:1"
       id="rect31"
       width="512"
       height="512"
       x="5774.3638"
       y="0"
       rx="86.889305"
       ry="86.889305" />
    <rect
       style="fill:#42bae3;fill-opacity:1;stroke:none;stroke-width:18;stroke-linejoin:round;stroke-dasharray:none;stroke-opacity:1"
       id="rect32"
       width="511.99973"
       height="512"
       x="12038.364"
       y="0"
       rx="76.536995"
       ry="76.536995" />
  </g>
</svg>
