{"accessors":[{"bufferView":0,"byteOffset":0,"componentType":5126,"count":2355,"max":[10.88138,3.331156,2.11157],"min":[-20.205421,-1.745948,-17.02129],"normalized":false,"type":"VEC3"},{"bufferView":1,"byteOffset":0,"componentType":5126,"count":2355,"max":[0.509553,0.193093,-0.000046,1],"min":[-1,-0.999702,-1,-1],"normalized":false,"type":"VEC4"},{"bufferView":2,"byteOffset":0,"componentType":5126,"count":2355,"max":[1,0.985331,0.982605],"min":[-1,-0.982613,-0.982617],"normalized":false,"type":"VEC3"},{"bufferView":3,"byteOffset":0,"componentType":5126,"count":2355,"max":[1,1],"min":[0,0],"normalized":false,"type":"VEC2"},{"bufferView":4,"byteOffset":0,"componentType":5125,"count":2355,"max":[2354],"min":[0],"normalized":false,"type":"SCALAR"},{"bufferView":5,"byteOffset":0,"componentType":5126,"count":2028,"max":[10.88138,1.462963,0.100489],"min":[-11.639642,-0.684717,-6.848705],"normalized":false,"type":"VEC3"},{"bufferView":6,"byteOffset":0,"componentType":5126,"count":2028,"max":[0.999135,0.940746,0.99816,1],"min":[-0.859905,-0.946484,-1,-1],"normalized":false,"type":"VEC4"},{"bufferView":7,"byteOffset":0,"componentType":5126,"count":2028,"max":[0.997964,0.999808,0.936347],"min":[-0.953349,-0.717237,-0.83165],"normalized":false,"type":"VEC3"},{"bufferView":8,"byteOffset":0,"componentType":5126,"count":2028,"max":[14.458941,1],"min":[0,0],"normalized":false,"type":"VEC2"},{"bufferView":9,"byteOffset":0,"componentType":5125,"count":2028,"max":[2027],"min":[0],"normalized":false,"type":"SCALAR"},{"bufferView":10,"byteOffset":0,"componentType":5126,"count":567,"max":[10.500004,7.69985,19.32715],"min":[-8.500002,-11.30015,0.327149],"normalized":false,"type":"VEC3"},{"bufferView":11,"byteOffset":0,"componentType":5126,"count":567,"max":[0.000825,0.348428,0.001268,1],"min":[-1,-1,-1,-1],"normalized":false,"type":"VEC4"},{"bufferView":12,"byteOffset":0,"componentType":5126,"count":567,"max":[1,1,1],"min":[-1,-1,-1],"normalized":false,"type":"VEC3"},{"bufferView":13,"byteOffset":0,"componentType":5126,"count":567,"max":[1,1],"min":[0,0],"normalized":false,"type":"VEC2"},{"bufferView":14,"byteOffset":0,"componentType":5125,"count":567,"max":[566],"min":[0],"normalized":false,"type":"SCALAR"},{"bufferView":15,"byteOffset":0,"componentType":5126,"count":381,"max":[2.706571,7.69985,8.00458],"min":[-5.293432,-5.884281,0.32715],"normalized":false,"type":"VEC3"},{"bufferView":16,"byteOffset":0,"componentType":5126,"count":381,"max":[0.000061,0,0.004183,1],"min":[-1,-1,-1,1],"normalized":false,"type":"VEC4"},{"bufferView":17,"byteOffset":0,"componentType":5126,"count":381,"max":[1,1,0.000382],"min":[-1,-0.000031,-1],"normalized":false,"type":"VEC3"},{"bufferView":18,"byteOffset":0,"componentType":5126,"count":381,"max":[1,1],"min":[0,0],"normalized":false,"type":"VEC2"},{"bufferView":19,"byteOffset":0,"componentType":5125,"count":381,"max":[380],"min":[0],"normalized":false,"type":"SCALAR"},{"bufferView":20,"byteOffset":0,"componentType":5126,"count":1023,"max":[9.335863,3.500001,1.300473],"min":[1.753617,-0.07699,-3.697793],"normalized":false,"type":"VEC3"},{"bufferView":21,"byteOffset":0,"componentType":5126,"count":1023,"max":[0.763878,0.633331,0.784879,1],"min":[-0.95213,-1,-1,-1],"normalized":false,"type":"VEC4"},{"bufferView":22,"byteOffset":0,"componentType":5126,"count":1023,"max":[0.952039,1,0.952115],"min":[-0.952101,-0.004623,-0.952147],"normalized":false,"type":"VEC3"},{"bufferView":23,"byteOffset":0,"componentType":5126,"count":1023,"max":[1,1],"min":[0,0],"normalized":false,"type":"VEC2"},{"bufferView":24,"byteOffset":0,"componentType":5125,"count":1023,"max":[1022],"min":[0],"normalized":false,"type":"SCALAR"},{"bufferView":25,"byteOffset":0,"componentType":5126,"count":48,"max":[2.01038,-2.386897,-1.05013],"min":[-4.31946,-4.934783,-1.319703],"normalized":false,"type":"VEC3"},{"bufferView":26,"byteOffset":0,"componentType":5126,"count":48,"max":[-1,0,-0.000046,-1],"min":[-1,0,-0.000046,-1],"normalized":false,"type":"VEC4"},{"bufferView":27,"byteOffset":0,"componentType":5126,"count":48,"max":[0,0,1],"min":[-0.000015,-0.000015,-1],"normalized":false,"type":"VEC3"},{"bufferView":28,"byteOffset":0,"componentType":5126,"count":48,"max":[0.916483,0.933979],"min":[0.083517,0.066021],"normalized":false,"type":"VEC2"},{"bufferView":29,"byteOffset":0,"componentType":5125,"count":48,"max":[47],"min":[0],"normalized":false,"type":"SCALAR"},{"bufferView":30,"byteOffset":0,"componentType":5126,"count":4428,"max":[7.560421,6.723755,2.346121],"min":[-17.831482,-6.408821,-10.93273],"normalized":false,"type":"VEC3"},{"bufferView":31,"byteOffset":0,"componentType":5126,"count":4428,"max":[1,0.999999,0.939971,1],"min":[-1,-1,-1,-1],"normalized":false,"type":"VEC4"},{"bufferView":32,"byteOffset":0,"componentType":5126,"count":4428,"max":[1,1,1],"min":[-1,-1,-1],"normalized":false,"type":"VEC3"},{"bufferView":33,"byteOffset":0,"componentType":5126,"count":4428,"max":[1,1],"min":[0,0],"normalized":false,"type":"VEC2"},{"bufferView":34,"byteOffset":0,"componentType":5125,"count":4428,"max":[4427],"min":[0],"normalized":false,"type":"SCALAR"},{"bufferView":35,"byteOffset":0,"componentType":5126,"count":4,"max":[11.1825,0,1.8475],"min":[-11.1825,0,-1.8475],"normalized":false,"type":"VEC3"},{"bufferView":36,"byteOffset":0,"componentType":5126,"count":4,"max":[1,0,-0.000015,1],"min":[1,0,-0.000015,1],"normalized":false,"type":"VEC4"},{"bufferView":37,"byteOffset":0,"componentType":5126,"count":4,"max":[0,1,-0.000015],"min":[0,1,-0.000015],"normalized":false,"type":"VEC3"},{"bufferView":38,"byteOffset":0,"componentType":5126,"count":4,"max":[1,1],"min":[0,0],"normalized":false,"type":"VEC2"},{"bufferView":39,"byteOffset":0,"componentType":5125,"count":6,"max":[3],"min":[0],"normalized":false,"type":"SCALAR"},{"bufferView":40,"byteOffset":0,"componentType":5126,"count":17,"max":[0.5],"min":[0],"normalized":false,"type":"SCALAR"},{"bufferView":41,"byteOffset":0,"componentType":5126,"count":17,"max":[-1.198,2.0899,3.550682],"min":[-1.19829,-4.231836,0.306125],"normalized":false,"type":"VEC3"},{"bufferView":42,"byteOffset":0,"componentType":5126,"count":2,"max":[0.2],"min":[0],"normalized":false,"type":"SCALAR"},{"bufferView":43,"byteOffset":0,"componentType":5126,"count":2,"max":[0,0,0],"min":[0,-1000,0],"normalized":false,"type":"VEC3"},{"bufferView":44,"byteOffset":0,"componentType":5126,"count":2,"max":[0.3],"min":[0.1],"normalized":false,"type":"SCALAR"},{"bufferView":45,"byteOffset":0,"componentType":5126,"count":2,"max":[1,1,0],"min":[0,0,0],"normalized":false,"type":"VEC3"}],"animations":[{"channels":[{"sampler":0,"target":{"node":1,"path":"translation"}},{"sampler":1,"target":{"node":3,"path":"translation"}},{"sampler":2,"target":{"node":18,"path":"scale"}}],"name":"to_game","samplers":[{"input":40,"interpolation":"LINEAR","output":41},{"input":42,"interpolation":"LINEAR","output":43},{"input":44,"interpolation":"LINEAR","output":45}]}],"asset":{"generator":"Godot Engine v4.3.dev4.official@df78c0636d79c9545a283e0e2a926d623998cc27","version":"2.0"},"bufferViews":[{"buffer":0,"byteLength":28260,"byteOffset":0},{"buffer":0,"byteLength":37680,"byteOffset":28260},{"buffer":0,"byteLength":28260,"byteOffset":65940},{"buffer":0,"byteLength":18840,"byteOffset":94200},{"buffer":0,"byteLength":9420,"byteOffset":113040},{"buffer":0,"byteLength":24336,"byteOffset":122460},{"buffer":0,"byteLength":32448,"byteOffset":146796},{"buffer":0,"byteLength":24336,"byteOffset":179244},{"buffer":0,"byteLength":16224,"byteOffset":203580},{"buffer":0,"byteLength":8112,"byteOffset":219804},{"buffer":0,"byteLength":6804,"byteOffset":227916},{"buffer":0,"byteLength":9072,"byteOffset":234720},{"buffer":0,"byteLength":6804,"byteOffset":243792},{"buffer":0,"byteLength":4536,"byteOffset":250596},{"buffer":0,"byteLength":2268,"byteOffset":255132},{"buffer":0,"byteLength":4572,"byteOffset":257400},{"buffer":0,"byteLength":6096,"byteOffset":261972},{"buffer":0,"byteLength":4572,"byteOffset":268068},{"buffer":0,"byteLength":3048,"byteOffset":272640},{"buffer":0,"byteLength":1524,"byteOffset":275688},{"buffer":0,"byteLength":12276,"byteOffset":277212},{"buffer":0,"byteLength":16368,"byteOffset":289488},{"buffer":0,"byteLength":12276,"byteOffset":305856},{"buffer":0,"byteLength":8184,"byteOffset":318132},{"buffer":0,"byteLength":4092,"byteOffset":326316},{"buffer":0,"byteLength":576,"byteOffset":330408},{"buffer":0,"byteLength":768,"byteOffset":330984},{"buffer":0,"byteLength":576,"byteOffset":331752},{"buffer":0,"byteLength":384,"byteOffset":332328},{"buffer":0,"byteLength":192,"byteOffset":332712},{"buffer":0,"byteLength":53136,"byteOffset":332904},{"buffer":0,"byteLength":70848,"byteOffset":386040},{"buffer":0,"byteLength":53136,"byteOffset":456888},{"buffer":0,"byteLength":35424,"byteOffset":510024},{"buffer":0,"byteLength":17712,"byteOffset":545448},{"buffer":0,"byteLength":48,"byteOffset":563160},{"buffer":0,"byteLength":64,"byteOffset":563208},{"buffer":0,"byteLength":48,"byteOffset":563272},{"buffer":0,"byteLength":32,"byteOffset":563320},{"buffer":0,"byteLength":24,"byteOffset":563352},{"buffer":0,"byteLength":68,"byteOffset":563376},{"buffer":0,"byteLength":204,"byteOffset":563444},{"buffer":0,"byteLength":8,"byteOffset":563648},{"buffer":0,"byteLength":24,"byteOffset":563656},{"buffer":0,"byteLength":8,"byteOffset":563680},{"buffer":0,"byteLength":24,"byteOffset":563688}],"buffers":[{"byteLength":563712,"uri":"game0.bin"}],"cameras":[{"perspective":{"yfov":1.30899691581726,"zfar":4000,"znear":0.0500000007450581},"type":"perspective"}],"extensions":{"KHR_lights_punctual":{"lights":[{"color":[1,1,1],"intensity":1,"range":340282346638528859811704183484516925440,"type":"directional"}]}},"extensionsRequired":["KHR_texture_transform"],"extensionsUsed":["GODOT_single_root","KHR_lights_punctual","KHR_materials_unlit","KHR_texture_transform"],"images":[{"uri":"textures%2F_albedo000.png"},{"uri":"textures%2F_albedo002.png"},{"uri":"textures%2F_albedo003.png"}],"materials":[{"extensions":{},"pbrMetallicRoughness":{"baseColorFactor":[0.00707229692488909,0.454350203275681,0.247143089771271,1],"metallicFactor":0,"roughnessFactor":1}},{"alphaMode":"BLEND","extensions":{},"pbrMetallicRoughness":{"baseColorFactor":[0.10461662709713,0.270498067140579,0.99999988079071,0.756862998008728],"metallicFactor":0,"roughnessFactor":1}},{"extensions":{},"pbrMetallicRoughness":{"baseColorFactor":[0.99999988079071,0.99999988079071,0.99999988079071,1],"baseColorTexture":{"extensions":{"KHR_texture_transform":{"scale":[19,19]}},"index":0},"metallicFactor":0,"roughnessFactor":1}},{"extensions":{},"pbrMetallicRoughness":{"baseColorFactor":[0.99999988079071,0.99999988079071,0.99999988079071,1],"baseColorTexture":{"index":1},"metallicFactor":0,"roughnessFactor":1}},{"extensions":{},"pbrMetallicRoughness":{"baseColorFactor":[0.99999988079071,0.99999988079071,0.99999988079071,1],"baseColorTexture":{"extensions":{"KHR_texture_transform":{"scale":[4,3]}},"index":2},"metallicFactor":0,"roughnessFactor":1}},{"extensions":{"KHR_materials_unlit":{}},"pbrMetallicRoughness":{"baseColorFactor":[0,0,0,1],"metallicFactor":0,"roughnessFactor":1}},{"extensions":{},"pbrMetallicRoughness":{"baseColorFactor":[0.99999988079071,0.99999988079071,0.99999988079071,1],"metallicFactor":0,"roughnessFactor":1}}],"meshes":[{"extras":{"targetNames":[]},"primitives":[{"attributes":{"NORMAL":2,"POSITION":0,"TANGENT":1,"TEXCOORD_0":3},"indices":4,"material":0,"mode":4},{"attributes":{"NORMAL":7,"POSITION":5,"TANGENT":6,"TEXCOORD_0":8},"indices":9,"material":1,"mode":4},{"attributes":{"NORMAL":12,"POSITION":10,"TANGENT":11,"TEXCOORD_0":13},"indices":14,"material":2,"mode":4},{"attributes":{"NORMAL":17,"POSITION":15,"TANGENT":16,"TEXCOORD_0":18},"indices":19,"material":3,"mode":4},{"attributes":{"NORMAL":22,"POSITION":20,"TANGENT":21,"TEXCOORD_0":23},"indices":24,"material":4,"mode":4},{"attributes":{"NORMAL":27,"POSITION":25,"TANGENT":26,"TEXCOORD_0":28},"indices":29,"material":5,"mode":4},{"attributes":{"NORMAL":32,"POSITION":30,"TANGENT":31,"TEXCOORD_0":33},"indices":34,"material":6,"mode":4}]},{"extras":{"targetNames":[]},"primitives":[{"attributes":{"NORMAL":37,"POSITION":35,"TANGENT":36,"TEXCOORD_0":38},"indices":39,"material":1,"mode":4}]}],"nodes":[{"children":[1,2,3,17,49,75,76,77],"extensions":{},"name":"Game"},{"camera":0,"extensions":{},"name":"Camera3D","translation":[-1.19828999042511,2.08990001678467,3.326740026474]},{"extensions":{},"name":"AnimationPlayer"},{"children":[4,14],"extensions":{},"name":"Menu"},{"children":[5],"extensions":{},"name":"CenterContainer"},{"children":[6,7,13],"extensions":{},"name":"VBoxContainer"},{"extensions":{},"name":"Label"},{"children":[8,9,10,11,12],"extensions":{},"name":"Buttons"},{"extensions":{},"name":"Button"},{"extensions":{},"name":"Button2"},{"extensions":{},"name":"Button3"},{"extensions":{},"name":"Button5"},{"extensions":{},"name":"Button4"},{"extensions":{},"name":"MainMenu2"},{"children":[15],"extensions":{},"name":"MarginContainer2"},{"children":[16],"extensions":{},"name":"Control"},{"extensions":{},"name":"Copyright"},{"children":[18,20,21,31,32],"extensions":{},"name":"MainGame"},{"children":[19],"extensions":{},"name":"DraggableSpace"},{"extensions":{},"name":"GameGrid"},{"extensions":{},"name":"AnimatedSprite2D"},{"children":[22],"extensions":{},"name":"MarginContainer"},{"children":[23,24,25,26,27,28],"extensions":{},"name":"Control2"},{"extensions":{},"name":"MinesCounter"},{"extensions":{},"name":"BackButton"},{"extensions":{},"name":"FlaggingMode"},{"extensions":{},"name":"RetryButton"},{"extensions":{},"name":"GameStatusLabel"},{"children":[29,30],"extensions":{},"name":"TimeSegments"},{"extensions":{},"name":"Records"},{"extensions":{},"name":"TimeCounter"},{"extensions":{},"name":"FieldGrid"},{"children":[33],"extensions":{},"name":"PopupMenu"},{"children":[34,35,48],"extensions":{},"name":"ui"},{"extensions":{},"name":"Label2"},{"children":[36,40,44],"extensions":{},"name":"Records2"},{"children":[37,38,39],"extensions":{},"name":"EASY"},{"extensions":{},"name":"Label3"},{"extensions":{},"name":"Label22"},{"extensions":{},"name":"Label32"},{"children":[41,42,43],"extensions":{},"name":"MEDIUM"},{"extensions":{},"name":"Label4"},{"extensions":{},"name":"Label23"},{"extensions":{},"name":"Label33"},{"children":[45,46,47],"extensions":{},"name":"HARD"},{"extensions":{},"name":"Label5"},{"extensions":{},"name":"Label24"},{"extensions":{},"name":"Label34"},{"extensions":{},"name":"Button6"},{"children":[50,51,52,54,55,56,57,58,59,60],"extensions":{},"mesh":0,"name":"CSGCombiner3D2"},{"extensions":{},"name":"CSGBox3D","rotation":[0.0932483524084091,0,0,0.995642900466919],"translation":[-4.66202020645142,0.792604029178619,-7.4548602104187]},{"extensions":{},"name":"CSGPolygon3D","scale":[1.03811001777649,1.03811001777649,1.03811001777649],"translation":[0,-0.73103600740433,-1.23706996440887]},{"children":[53],"extensions":{},"name":"CSGBox3D2","translation":[1,-1.80015003681183,9.82715034484863]},{"extensions":{},"name":"CSGBox3D3","translation":[-2.29343008995056,2.91586995124817,-5.82256984710693]},{"extensions":{},"name":"CSGBox3D4","rotation":[0,0.154882922768593,0,0.987932801246643],"translation":[5.54474020004272,1.5,-1.19866001605988]},{"extensions":{},"name":"CSGBox3D5","rotation":[0,0.271457105875015,0,0.962450504302979],"translation":[3.7292799949646,1.5,-6.06763982772827]},{"extensions":{},"name":"CSGBox3D8","translation":[-0.47038298845291,-4.04322004318237,0.00667094998061657]},{"extensions":{},"name":"CSGBox3D7","translation":[-0.87200897932053,-4.04896020889282,0.265615999698639]},{"extensions":{},"name":"CSGBox3D6","rotation":[0,-0.14588478207588,0,0.989301562309265],"translation":[-4.6334400177002,3.11188006401062,-7.55530977249146]},{"extensions":{},"name":"CSGBox3D9","rotation":[0,-0.4910101890564,0,0.871153831481934],"translation":[-13.0651998519897,1.3610600233078,-4.18552017211914]},{"children":[61,62,63,64,65,66,67,68,69,70],"extensions":{},"name":"CSGCombiner3D3"},{"extensions":{},"name":"CSGBox3D92","rotation":[0,0.230542168021202,0,0.973062336444855],"translation":[1.8361599445343,0.858458995819092,-3.0351300239563]},{"extensions":{},"name":"CSGBox3D16","rotation":[0,-0.00553263397887,0,0.999984681606293],"translation":[1.86301004886627,1.810879945755,-2.37585997581482]},{"extensions":{},"name":"CSGBox3D10","rotation":[0,0.230542168021202,0,0.973062336444855],"translation":[1.8361599445343,0.858458995819092,-2.8429000377655]},{"extensions":{},"name":"CSGBox3D11","rotation":[0,0.230542168021202,0,0.973062336444855],"translation":[1.8361599445343,0.858458995819092,-2.6047899723053]},{"extensions":{},"name":"CSGBox3D12","rotation":[0,0.230542168021202,0,0.973062336444855],"translation":[1.8361599445343,0.858458995819092,-2.3845100402832]},{"extensions":{},"name":"CSGBox3D13","rotation":[0,0.230542168021202,0,0.973062336444855],"translation":[1.8361599445343,0.858458995819092,-2.16868996620178]},{"extensions":{},"name":"CSGBox3D14","rotation":[0,0.230542168021202,0,0.973062336444855],"translation":[1.8361599445343,0.858458995819092,-1.9271399974823]},{"extensions":{},"name":"CSGBox3D15","rotation":[0,0.230542168021202,0,0.973062336444855],"translation":[1.8361599445343,0.858458995819092,-1.71556997299194]},{"extensions":{},"name":"CSGCylinder3D","rotation":[0,0,0.70710676908493,0.70710676908493],"translation":[1.8763200044632,2.23433995246887,-2.34648990631104]},{"children":[71,73,74],"extensions":{},"name":"CSGCombiner3D22"},{"children":[72],"extensions":{},"name":"CSGBox3D52","scale":[0.869135022163391,0.869497001171112,7.02620983123779],"translation":[-1.15453994274139,-3.66084003448486,-1.21113002300262]},{"extensions":{},"name":"CSGBox3D42","scale":[1.20053005218506,1.15213000774384,0.320551007986069],"translation":[0,0,0.0037308600731194]},{"extensions":{},"name":"CSGBox3D17","translation":[-2.79942011833191,-5.69278001785278,-1.18959999084473]},{"extensions":{},"name":"CSGBox3D32","rotation":[-0.39366093277931,0,0,0.919255673885345],"translation":[-2.79942011833191,-5.18121004104614,-0.58092302083969]},{"extensions":{},"mesh":1,"name":"MeshInstance3D","rotation":[0.104884445667267,0,0,0.994484424591064],"translation":[0,0.468971997499466,-2.01429009437561]},{"extensions":{},"name":"Path3D"},{"children":[78],"extensions":{},"name":"WorldEnvironment"},{"extensions":{"KHR_lights_punctual":{"light":0}},"name":"DirectionalLight3D","rotation":[-0.23691101372242,-0.75691503286362,-0.2310816347599,0.563519418239594]}],"samplers":[{"magFilter":9729,"minFilter":9987,"wrapS":10497,"wrapT":10497}],"scene":0,"scenes":[{"nodes":[0]}],"textures":[{"sampler":0,"source":0},{"sampler":0,"source":1},{"sampler":0,"source":2}]}