<?xml version="1.0" encoding="UTF-8" standalone="no"?>
<!-- Created with Inkscape (http://www.inkscape.org/) -->

<svg
   width="210mm"
   height="210mm"
   viewBox="0 0 210 210"
   version="1.1"
   id="svg1"
   inkscape:version="1.3.2 (091e20ef0f, 2023-11-25, custom)"
   sodipodi:docname="icon.svg"
   inkscape:export-filename="icon.png"
   inkscape:export-xdpi="96"
   inkscape:export-ydpi="96"
   xmlns:inkscape="http://www.inkscape.org/namespaces/inkscape"
   xmlns:sodipodi="http://sodipodi.sourceforge.net/DTD/sodipodi-0.dtd"
   xmlns="http://www.w3.org/2000/svg"
   xmlns:svg="http://www.w3.org/2000/svg">
  <sodipodi:namedview
     id="namedview1"
     pagecolor="#ffffff"
     bordercolor="#111111"
     borderopacity="1"
     inkscape:showpageshadow="0"
     inkscape:pageopacity="0"
     inkscape:pagecheckerboard="1"
     inkscape:deskcolor="#d1d1d1"
     inkscape:document-units="mm"
     inkscape:zoom="0.75366162"
     inkscape:cx="310.48417"
     inkscape:cy="383.46122"
     inkscape:window-width="1920"
     inkscape:window-height="1024"
     inkscape:window-x="0"
     inkscape:window-y="0"
     inkscape:window-maximized="0"
     inkscape:current-layer="layer1" />
  <defs
     id="defs1" />
  <g
     inkscape:label="Layer 1"
     inkscape:groupmode="layer"
     id="layer1">
    <rect
       style="fill:#41a7b3;fill-opacity:1;stroke:#41a7b3;stroke-width:6.86501;stroke-opacity:1"
       id="rect1"
       width="194.48938"
       height="194.13829"
       x="7.7553101"
       y="7.9308548"
       rx="18.606382"
       ry="18.606382" />
    <path
       style="fill:#41a7b3;fill-opacity:1;stroke:#41a7b3;stroke-width:6.86501;stroke-opacity:1"
       d="m 73.021276,170.96808 c 0.819148,-0.11702 1.648868,-0.17528 2.457448,-0.35106 1.87234,-0.46809 3.744679,-0.93617 5.617019,-1.40426 1.053193,-0.35106 2.082559,-0.78393 3.159575,-1.05319 1.29576,-0.32394 4.466132,-0.48633 5.617022,-0.70212 0.837335,-0.15701 1.624428,-0.52363 2.457447,-0.70213 1.10649,-0.85642 2.35059,-0.15772 3.510637,-0.35107 1.729587,-0.28826 3.506671,-0.50665 5.265956,-0.70212 0.93045,-0.10339 1.88175,0.13239 2.80851,0 1.40495,-0.20071 2.42118,-0.35107 3.8617,-0.35107 1.43492,0 6.98777,-0.36223 8.07447,0 0.157,0.0523 0.19407,0.29873 0.35107,0.35107 0.70794,0.23598 1.40948,0.11876 2.10638,0.35106 0.42127,0.14043 0.63192,0.91277 1.05319,1.05319 0.22203,0.074 0.4801,-0.074 0.70213,0 0.55688,0.18563 0.72345,1.07451 1.05319,1.40426 0.12893,0.12893 1.13745,0.56872 1.40425,0.70212 0.71514,0.35757 1.36031,1.50663 2.10639,1.75532 0.22203,0.074 0.48009,-0.074 0.70212,0 0.89283,0.29761 1.64219,1.34769 2.45745,1.75532 0.44817,0.22409 1.18087,0.47874 1.40426,0.70213 0.0759,0.0759 0.0554,1.29344 0,1.40426 -0.30591,0.61182 -1.2309,1.14204 -1.75532,1.40425 -0.20934,0.10467 -0.4928,-0.10467 -0.70213,0 -0.40894,0.20447 -0.64425,0.49765 -1.05319,0.70213 -0.45274,0.22637 -1.15371,-0.12528 -2.10638,0.35106 -0.56171,0.28085 -1.54469,-0.28085 -2.10639,0 -1.71695,0.85848 -5.9899,0.35107 -8.07446,0.35107 -1.82216,0 -8.17264,0.43536 -9.47873,0 -0.157,-0.0523 -0.19406,-0.29874 -0.35106,-0.35107 -0.44407,-0.14802 -0.95015,0.11353 -1.40426,0 -0.25385,-0.0635 -0.44827,-0.2876 -0.70212,-0.35106 -0.55891,-0.13973 -1.58653,0.25993 -2.106388,0 -0.523576,-0.26179 -0.868725,-0.78543 -1.404255,-1.05319 -0.418285,-0.20915 -1.438288,-0.3851 -1.75532,-0.70213 -0.08275,-0.0828 0.08275,-0.26832 0,-0.35106 -0.726363,-0.72637 0.0284,1.10998 -0.702128,-0.35107 -0.05233,-0.10467 0.08275,-0.26832 0,-0.35106 -0.08274,-0.0828 -0.268316,0.0827 -0.351062,0 -0.08275,-0.0828 0.08275,-0.26832 0,-0.35107 -0.08275,-0.0827 -0.268317,0.0828 -0.351065,0 -0.162282,-0.16228 0.105981,-0.84122 0,-1.05319 -0.07401,-0.14802 -0.277053,-0.20304 -0.351062,-0.35106 -0.100063,-0.20012 -0.146566,-8.19033 0,-8.7766 0.208335,-0.83334 0.429641,-1.63999 0.702127,-2.45744 0.338526,-1.01558 0,-2.78538 0,-3.86171 0,-2.64421 0.07892,-5.23059 0.702127,-7.7234 0.40821,-1.63283 0,-4.56156 0,-6.31915 0,-0.23289 0.289254,-2.62308 0.351063,-2.80851 0.05233,-0.157 0.29873,-0.19406 0.351065,-0.35106 0.315571,-0.94672 -0.242594,-2.1892 0,-3.15958 0.06346,-0.25385 0.299746,-0.44554 0.351065,-0.70213 0.18003,-0.90016 -0.180033,-1.90834 0,-2.80851 0.124904,-0.62453 0.527637,-1.23185 0.702127,-1.75532 0.148021,-0.44406 -0.113527,-0.95014 0,-1.40425 0.180668,-0.72268 0.521457,-1.3837 0.702128,-2.10638 0.113527,-0.45411 -0.0918,-0.94526 0,-1.40426 0.193074,-0.96538 0.399814,-1.90157 0.702127,-2.80851 0.306893,-0.92068 -0.189423,-2.21246 0,-3.15958 0.05132,-0.25658 0.299747,-0.44554 0.351063,-0.70212 0.236344,-1.18171 -0.380209,-2.72108 0,-3.8617 0.05233,-0.157 0.29873,-0.19407 0.351065,-0.35107 0.358893,-1.07668 -0.22269,-2.01207 0.351063,-3.15957 0.56141,-1.12281 -0.56359,-5.54304 0,-6.67021 0.074,-0.14803 0.27705,-0.20305 0.35106,-0.35107 0.28085,-0.5617 -0.28085,-1.54468 0,-2.10638 0.27612,-0.55224 0.35107,-0.39802 0.35107,-1.05319 0,-0.27489 -0.17517,-1.58015 0,-1.75532 0.0827,-0.0828 0.26832,0.0827 0.35106,0 0.39357,-0.39357 -0.25886,-1.939733 0,-2.457448 0.88422,-1.76843 0.35107,-6.218627 0.35107,-8.425532"
       id="path1" />
    <rect
       style="fill:#ffffff;fill-opacity:1;stroke:none;stroke-width:7.65362;stroke-opacity:1"
       id="rect2"
       width="130.62529"
       height="11.821076"
       x="37.292118"
       y="178.33804" />
    <path
       style="fill:#e60e0e;fill-opacity:1;stroke:#ffffff;stroke-width:11.9157;stroke-dasharray:none;stroke-opacity:1"
       d="M 78.005016,23.358266 145.03336,57.481767 78.005016,84.902443 Z"
       id="path3"
       sodipodi:nodetypes="cccc" />
    <path
       style="fill:none;fill-rule:evenodd;stroke:#ffffff;stroke-width:8.62417;stroke-linecap:butt;stroke-linejoin:miter;stroke-dasharray:none;stroke-opacity:1"
       d="M 76.359251,181.26455 V 24.873748"
       id="path4"
       inkscape:connector-type="polyline"
       inkscape:connector-curvature="0" />
  </g>
</svg>
