<?xml version="1.0" encoding="UTF-8" standalone="no"?>
<!-- Created with Inkscape (http://www.inkscape.org/) -->

<svg
   width="210mm"
   height="210mm"
   viewBox="0 0 210 210"
   version="1.1"
   id="svg1"
   inkscape:version="1.3.2 (091e20ef0f, 2023-11-25, custom)"
   sodipodi:docname="icon.svg"
   inkscape:export-filename="icon.png"
   inkscape:export-xdpi="96"
   inkscape:export-ydpi="96"
   xmlns:inkscape="http://www.inkscape.org/namespaces/inkscape"
   xmlns:sodipodi="http://sodipodi.sourceforge.net/DTD/sodipodi-0.dtd"
   xmlns="http://www.w3.org/2000/svg"
   xmlns:svg="http://www.w3.org/2000/svg">
  <sodipodi:namedview
     id="namedview1"
     pagecolor="#ffffff"
     bordercolor="#111111"
     borderopacity="1"
     inkscape:showpageshadow="0"
     inkscape:pageopacity="0"
     inkscape:pagecheckerboard="1"
     inkscape:deskcolor="#d1d1d1"
     inkscape:document-units="mm"
     inkscape:zoom="0.75366162"
     inkscape:cx="311.81102"
     inkscape:cy="383.46121"
     inkscape:window-width="1920"
     inkscape:window-height="1050"
     inkscape:window-x="0"
     inkscape:window-y="0"
     inkscape:window-maximized="0"
     inkscape:current-layer="layer1" />
  <defs
     id="defs1" />
  <g
     inkscape:label="Layer 1"
     inkscape:groupmode="layer"
     id="layer1">
    <rect
       style="fill:#41a7b3;fill-opacity:1;stroke:#41a7b3;stroke-width:5.82369;stroke-opacity:1"
       id="rect1"
       width="164.98814"
       height="164.69032"
       x="24.537842"
       y="22.857002"
       rx="66.11438"
       ry="66.11438" />
    <path
       style="fill:#41a7b3;fill-opacity:1;stroke:#41a7b3;stroke-width:5.82369;stroke-opacity:1"
       d="m 79.903902,161.16384 c 0.694895,-0.0993 1.398759,-0.1487 2.084689,-0.29781 1.588333,-0.39709 3.176665,-0.79417 4.764998,-1.19126 0.893439,-0.29781 1.766665,-0.66502 2.680313,-0.89343 1.099212,-0.27481 3.788684,-0.41256 4.765001,-0.59562 0.710323,-0.1332 1.378026,-0.4442 2.084688,-0.59563 0.938651,-0.72651 1.994039,-0.1338 2.978124,-0.29782 1.467235,-0.24453 2.974765,-0.4298 4.467185,-0.59562 0.78932,-0.0877 1.59632,0.11231 2.3825,0 1.19184,-0.17026 2.05392,-0.29781 3.27594,-0.29781 1.21726,0 5.92782,-0.30729 6.84969,0 0.13318,0.0444 0.16463,0.25341 0.29781,0.29781 0.60056,0.20019 1.19568,0.10075 1.78687,0.29781 0.35737,0.11913 0.53607,0.77432 0.89344,0.89344 0.18835,0.0628 0.40728,-0.0628 0.59563,0 0.47241,0.15747 0.61371,0.91152 0.89343,1.19125 0.10938,0.10938 0.96492,0.48246 1.19125,0.59562 0.60666,0.30333 1.15397,1.2781 1.78688,1.48907 0.18835,0.0628 0.40727,-0.0628 0.59562,0 0.7574,0.25246 1.39309,1.14326 2.08469,1.48906 0.38019,0.1901 1.00175,0.40612 1.19125,0.59563 0.0644,0.0644 0.047,1.09724 0,1.19125 -0.2595,0.51902 -1.04419,0.96881 -1.48906,1.19125 -0.17759,0.0888 -0.41805,-0.0888 -0.59563,0 -0.34691,0.17345 -0.54652,0.42216 -0.89343,0.59562 -0.38407,0.19204 -0.97871,-0.10627 -1.78688,0.29781 -0.4765,0.23825 -1.31038,-0.23825 -1.78688,0 -1.45651,0.72826 -5.08131,0.29782 -6.84967,0.29782 -1.54577,0 -6.93297,0.36932 -8.04095,0 -0.13318,-0.0444 -0.16462,-0.25343 -0.29781,-0.29782 -0.37671,-0.12557 -0.80602,0.0963 -1.19125,0 -0.21535,-0.0539 -0.38028,-0.24397 -0.59562,-0.29781 -0.47413,-0.11853 -1.34588,0.22051 -1.78688,0 -0.44416,-0.22208 -0.73695,-0.66629 -1.19125,-0.89343 -0.35484,-0.17743 -1.22012,-0.32669 -1.489063,-0.59563 -0.0702,-0.0702 0.0702,-0.22762 0,-0.29781 -0.616185,-0.61619 0.02409,0.94161 -0.595626,-0.29782 -0.04439,-0.0888 0.0702,-0.22762 0,-0.29781 -0.07019,-0.0702 -0.227616,0.0702 -0.297811,0 -0.0702,-0.0702 0.0702,-0.22762 0,-0.29781 -0.0702,-0.0702 -0.227617,0.0702 -0.297813,0 -0.137666,-0.13767 0.08991,-0.71362 0,-0.89344 -0.06278,-0.12557 -0.235028,-0.17224 -0.297811,-0.29781 -0.08488,-0.16976 -0.124334,-6.94798 0,-7.44532 0.176734,-0.70693 0.364471,-1.39122 0.595624,-2.08468 0.287177,-0.86153 0,-2.36288 0,-3.27594 0,-2.24312 0.06695,-4.43719 0.595625,-6.55187 0.34629,-1.38516 0,-3.86964 0,-5.36063 0,-0.19756 0.245378,-2.2252 0.297812,-2.3825 0.04439,-0.13319 0.253417,-0.16462 0.297813,-0.29781 0.2677,-0.80312 -0.205796,-1.85713 0,-2.68032 0.05383,-0.21534 0.25428,-0.37795 0.29781,-0.59562 0.15273,-0.76362 -0.15272,-1.61888 0,-2.3825 0.10596,-0.5298 0.44761,-1.045 0.59563,-1.48907 0.12557,-0.3767 -0.0963,-0.80601 0,-1.19124 0.15326,-0.61306 0.44236,-1.17381 0.59562,-1.78687 0.0963,-0.38523 -0.0779,-0.80188 0,-1.19126 0.16379,-0.81894 0.33917,-1.61313 0.59563,-2.3825 0.26034,-0.78102 -0.16069,-1.87686 0,-2.68032 0.0435,-0.21766 0.25428,-0.37795 0.29781,-0.59561 0.20049,-1.00247 -0.32254,-2.30834 0,-3.27594 0.0444,-0.13319 0.25342,-0.16463 0.29781,-0.29782 0.30446,-0.91336 -0.18891,-1.70687 0.29782,-2.68031 0.47625,-0.95249 -0.47811,-4.70224 0,-5.65843 0.0628,-0.12558 0.23502,-0.17225 0.2978,-0.29782 0.23825,-0.4765 -0.23824,-1.31038 0,-1.78687 0.23424,-0.46848 0.29782,-0.33765 0.29782,-0.89344 0,-0.23319 -0.1486,-1.34046 0,-1.48906 0.0702,-0.0702 0.22762,0.0702 0.29781,0 0.33387,-0.33387 -0.21959,-1.645508 0,-2.084693 0.7501,-1.500185 0.29782,-5.275351 0.29782,-7.1475"
       id="path1" />
    <rect
       style="fill:#ffffff;fill-opacity:1;stroke:none;stroke-width:6.06562;stroke-opacity:1"
       id="rect2"
       width="103.52255"
       height="9.3683844"
       x="54.350121"
       y="166.82228" />
    <path
       style="fill:#e60e0e;fill-opacity:1;stroke:#ffffff;stroke-width:10.1083;stroke-dasharray:none;stroke-opacity:1"
       d="M 84.131681,35.944297 140.99279,64.891756 84.131681,88.153111 Z"
       id="path3"
       sodipodi:nodetypes="cccc" />
    <path
       style="fill:none;fill-rule:evenodd;stroke:#ffffff;stroke-width:7.31601;stroke-linecap:butt;stroke-linejoin:miter;stroke-dasharray:none;stroke-opacity:1"
       d="M 82.735554,169.89848 V 37.229902"
       id="path4"
       inkscape:connector-type="polyline"
       inkscape:connector-curvature="0" />
  </g>
</svg>
